<svg width="48" height="48" viewBox="0 0 48 48" fill="none" xmlns="http://www.w3.org/2000/svg">
<path d="M0 6C0 2.68629 2.68629 0 6 0H42C45.3137 0 48 2.68629 48 6V42C48 45.3137 45.3137 48 42 48H6C2.68629 48 0 45.3137 0 42V6Z" fill="#1A1F36"/>
<path d="M2.52 43.44H45.36V45.48H2.52V43.44Z" fill="#FFB800"/>
<path d="M2.52 39.36H45.36V41.4H2.52V39.36Z" fill="#FFB800"/>
<path d="M2.52 35.28H45.36V37.32H2.52V35.28Z" fill="#FFB800"/>
<path d="M2.52 31.2H45.36V33.24H2.52V31.2Z" fill="#FFB800"/>
<path d="M2.52 27.12H45.36V29.16H2.52V27.12Z" fill="#FFB800"/>
<path d="M2.52 23.04H45.36V25.08H2.52V23.04Z" fill="#FFB800"/>
<path d="M2.52 18.96H45.36V21H2.52V18.96Z" fill="#FFB800"/>
<path d="M2.52 14.88H45.36V16.92H2.52V14.88Z" fill="#FFB800"/>
<path d="M2.52 10.8H45.36V12.84H2.52V10.8Z" fill="#FFB800"/>
<path d="M2.52 6.72H45.36V8.76H2.52V6.72Z" fill="#FFB800"/>
<path d="M2.52 2.64H45.36V4.68H2.52V2.64Z" fill="#FFB800"/>
<path d="M42 0C45.3137 0 48 2.68629 48 6V42C48 45.3137 45.3137 48 42 48H6C2.68629 48 0 45.3137 0 42V6C0 2.68629 2.68629 0 6 0H42ZM23.94 2.64C12.1101 2.64 2.52 12.2301 2.52 24.06C2.52 35.8899 12.1101 45.48 23.94 45.48C35.7699 45.48 45.36 35.8899 45.36 24.06C45.36 12.2301 35.7699 2.64 23.94 2.64Z" fill="#1A1F36"/>
</svg>
