<svg width="361" height="66" viewBox="0 0 361 66" fill="none" xmlns="http://www.w3.org/2000/svg">
<path d="M30.5938 39.125C30.5938 41.375 30.0938 43.3646 29.0938 45.0938C28.0938 46.8229 26.4896 48.1771 24.2812 49.1562C22.0938 50.1354 19.2083 50.625 15.625 50.625C13.1042 50.625 10.8438 50.4896 8.84375 50.2188C6.86458 49.9479 4.85417 49.4271 2.8125 48.6562V38.875C5.04167 39.8958 7.3125 40.6354 9.625 41.0938C11.9375 41.5312 13.7604 41.75 15.0938 41.75C16.4688 41.75 17.4688 41.6042 18.0938 41.3125C18.7396 41 19.0625 40.5417 19.0625 39.9375C19.0625 39.4167 18.8438 38.9792 18.4062 38.625C17.9896 38.25 17.2292 37.8229 16.125 37.3438C15.0417 36.8646 13.5104 36.2188 11.5312 35.4062C9.57292 34.5938 7.9375 33.7083 6.625 32.75C5.33333 31.7917 4.36458 30.6458 3.71875 29.3125C3.07292 27.9792 2.75 26.3438 2.75 24.4062C2.75 20.9479 4.08333 18.3438 6.75 16.5938C9.41667 14.8438 12.9479 13.9688 17.3438 13.9688C19.6771 13.9688 21.875 14.2292 23.9375 14.75C26 15.25 28.1354 15.9896 30.3438 16.9688L27 24.8438C25.25 24.0521 23.4792 23.4167 21.6875 22.9375C19.8958 22.4583 18.4688 22.2188 17.4062 22.2188C16.4479 22.2188 15.7083 22.3438 15.1875 22.5938C14.6667 22.8438 14.4062 23.2083 14.4062 23.6875C14.4062 24.125 14.5833 24.5104 14.9375 24.8438C15.3125 25.1771 16.0104 25.5625 17.0312 26C18.0521 26.4375 19.5417 27.0521 21.5 27.8438C23.5625 28.6771 25.2604 29.5729 26.5938 30.5312C27.9479 31.4688 28.9479 32.6146 29.5938 33.9688C30.2604 35.3229 30.5938 37.0417 30.5938 39.125ZM71.8438 14.5938V50H62.625L61.0938 45.5938H60.375C59.6458 46.7812 58.7188 47.75 57.5938 48.5C56.4896 49.2292 55.2604 49.7604 53.9062 50.0938C52.5521 50.4479 51.1458 50.625 49.6875 50.625C47.375 50.625 45.2812 50.1771 43.4062 49.2812C41.5521 48.3854 40.0729 46.9792 38.9688 45.0625C37.8854 43.1458 37.3438 40.6771 37.3438 37.6562V14.5938H49.5625V33.9375C49.5625 36.2292 49.8854 37.9792 50.5312 39.1875C51.1979 40.375 52.2812 40.9688 53.7812 40.9688C55.3229 40.9688 56.5104 40.5521 57.3438 39.7188C58.1979 38.8854 58.7917 37.6562 59.125 36.0312C59.4583 34.4062 59.625 32.4271 59.625 30.0938V14.5938H71.8438ZM102.438 13.9688C106.083 13.9688 109.062 15 111.375 17.0625C113.688 19.125 114.844 22.4271 114.844 26.9688V50H102.625V30.6875C102.625 28.3333 102.281 26.5625 101.594 25.375C100.927 24.1667 99.8438 23.5625 98.3438 23.5625C96.0312 23.5625 94.4792 24.5104 93.6875 26.4062C92.8958 28.2812 92.5 30.9792 92.5 34.5V50H80.2812V14.5938H89.5L91.1562 19.2812H91.625C92.375 18.1562 93.2708 17.1979 94.3125 16.4062C95.3542 15.6146 96.5521 15.0104 97.9062 14.5938C99.2604 14.1771 100.771 13.9688 102.438 13.9688ZM144.781 13.9688C148.698 13.9688 151.771 15.5417 154 18.6875C156.229 21.8125 157.344 26.3229 157.344 32.2188C157.344 36.2396 156.781 39.625 155.656 42.375C154.531 45.1042 152.99 47.1667 151.031 48.5625C149.094 49.9375 146.885 50.625 144.406 50.625C142.74 50.625 141.323 50.4167 140.156 50C139.01 49.5833 138.052 49.0625 137.281 48.4375C136.531 47.8125 135.896 47.1771 135.375 46.5312H135C135.104 47.3438 135.188 48.2188 135.25 49.1562C135.333 50.0938 135.375 51.1875 135.375 52.4375V65.375H123.156V14.5938H133.094L134.812 19.0938H135.375C135.958 18.1771 136.667 17.3333 137.5 16.5625C138.333 15.7708 139.344 15.1458 140.531 14.6875C141.74 14.2083 143.156 13.9688 144.781 13.9688ZM140.188 23.5625C139 23.5625 138.062 23.8438 137.375 24.4062C136.688 24.9688 136.188 25.8229 135.875 26.9688C135.583 28.0938 135.417 29.5 135.375 31.1875V32.1562C135.375 34.0312 135.521 35.6146 135.812 36.9062C136.104 38.1771 136.604 39.1458 137.312 39.8125C138.021 40.4583 139 40.7812 140.25 40.7812C141.271 40.7812 142.125 40.4896 142.812 39.9062C143.5 39.3229 144.021 38.3958 144.375 37.125C144.729 35.8542 144.906 34.1771 144.906 32.0938C144.906 28.9896 144.5 26.7917 143.688 25.5C142.896 24.2083 141.729 23.5625 140.188 23.5625ZM180.281 13.9688C183.719 13.9688 186.688 14.5729 189.188 15.7812C191.688 16.9688 193.615 18.7604 194.969 21.1562C196.323 23.5521 197 26.5521 197 30.1562V35.5938H175.156C175.26 37.4479 175.948 38.9688 177.219 40.1562C178.51 41.3438 180.406 41.9375 182.906 41.9375C185.115 41.9375 187.135 41.7188 188.969 41.2812C190.823 40.8438 192.729 40.1667 194.688 39.25V48.0312C192.979 48.9271 191.115 49.5833 189.094 50C187.073 50.4167 184.521 50.625 181.438 50.625C177.875 50.625 174.688 49.9896 171.875 48.7188C169.062 47.4479 166.844 45.4792 165.219 42.8125C163.615 40.1458 162.812 36.7188 162.812 32.5312C162.812 28.2812 163.542 24.7917 165 22.0625C166.458 19.3125 168.5 17.2812 171.125 15.9688C173.75 14.6354 176.802 13.9688 180.281 13.9688ZM180.719 22.2812C179.281 22.2812 178.073 22.7396 177.094 23.6562C176.135 24.5521 175.573 25.9688 175.406 27.9062H185.906C185.885 26.8646 185.677 25.9167 185.281 25.0625C184.885 24.2083 184.302 23.5312 183.531 23.0312C182.781 22.5312 181.844 22.2812 180.719 22.2812ZM221.188 13.9688C225.667 13.9688 229.167 15.0833 231.688 17.3125C234.208 19.5208 235.469 22.6771 235.469 26.7812V50H227L224.656 45.3125H224.406C223.406 46.5625 222.375 47.5833 221.312 48.375C220.271 49.1458 219.073 49.7083 217.719 50.0625C216.365 50.4375 214.708 50.625 212.75 50.625C210.708 50.625 208.875 50.2083 207.25 49.375C205.625 48.5417 204.344 47.2812 203.406 45.5938C202.469 43.9062 202 41.7708 202 39.1875C202 35.3958 203.312 32.5833 205.938 30.75C208.562 28.9167 212.365 27.8854 217.344 27.6562L223.25 27.4688V26.9688C223.25 25.3854 222.854 24.2604 222.062 23.5938C221.292 22.9271 220.25 22.5938 218.938 22.5938C217.542 22.5938 215.979 22.8438 214.25 23.3438C212.542 23.8229 210.823 24.4479 209.094 25.2188L205.562 17.1562C207.604 16.1146 209.917 15.3229 212.5 14.7812C215.083 14.2396 217.979 13.9688 221.188 13.9688ZM223.312 34.1875L220.5 34.3125C218.25 34.3958 216.667 34.7917 215.75 35.5C214.854 36.1875 214.406 37.1771 214.406 38.4688C214.406 39.6771 214.729 40.5729 215.375 41.1562C216.021 41.7188 216.875 42 217.938 42C219.417 42 220.677 41.5312 221.719 40.5938C222.781 39.6562 223.312 38.4375 223.312 36.9375V34.1875ZM256.062 1.375V20.5C256.062 21.9375 256 23.5417 255.875 25.3125C255.771 27.0625 255.604 28.6562 255.375 30.0938H255.625C256.104 29.3646 256.708 28.4479 257.438 27.3438C258.167 26.2396 258.823 25.3229 259.406 24.5938L267.344 14.5938H280.969L268.688 29.6562L281.75 50H267.781L260.031 37.3125L256.062 40.3438V50H243.781V1.375H256.062ZM321.75 13.9688C326.229 13.9688 329.729 15.0833 332.25 17.3125C334.771 19.5208 336.031 22.6771 336.031 26.7812V50H327.562L325.219 45.3125H324.969C323.969 46.5625 322.938 47.5833 321.875 48.375C320.833 49.1458 319.635 49.7083 318.281 50.0625C316.927 50.4375 315.271 50.625 313.312 50.625C311.271 50.625 309.438 50.2083 307.812 49.375C306.188 48.5417 304.906 47.2812 303.969 45.5938C303.031 43.9062 302.562 41.7708 302.562 39.1875C302.562 35.3958 303.875 32.5833 306.5 30.75C309.125 28.9167 312.927 27.8854 317.906 27.6562L323.812 27.4688V26.9688C323.812 25.3854 323.417 24.2604 322.625 23.5938C321.854 22.9271 320.812 22.5938 319.5 22.5938C318.104 22.5938 316.542 22.8438 314.812 23.3438C313.104 23.8229 311.385 24.4479 309.656 25.2188L306.125 17.1562C308.167 16.1146 310.479 15.3229 313.062 14.7812C315.646 14.2396 318.542 13.9688 321.75 13.9688ZM323.875 34.1875L321.062 34.3125C318.812 34.3958 317.229 34.7917 316.312 35.5C315.417 36.1875 314.969 37.1771 314.969 38.4688C314.969 39.6771 315.292 40.5729 315.938 41.1562C316.583 41.7188 317.438 42 318.5 42C319.979 42 321.24 41.5312 322.281 40.5938C323.344 39.6562 323.875 38.4375 323.875 36.9375V34.1875ZM356.625 14.5938V50H344.406V14.5938H356.625ZM350.562 0.34375C352.312 0.34375 353.833 0.708333 355.125 1.4375C356.438 2.16667 357.094 3.61458 357.094 5.78125C357.094 7.88542 356.438 9.3125 355.125 10.0625C353.833 10.7917 352.312 11.1562 350.562 11.1562C348.771 11.1562 347.24 10.7917 345.969 10.0625C344.719 9.3125 344.094 7.88542 344.094 5.78125C344.094 3.61458 344.719 2.16667 345.969 1.4375C347.24 0.708333 348.771 0.34375 350.562 0.34375Z" fill="white"/>
<path d="M284.438 44.8125C284.438 42.6042 285.083 41.0521 286.375 40.1562C287.688 39.2604 289.26 38.8125 291.094 38.8125C292.823 38.8125 294.323 39.2604 295.594 40.1562C296.865 41.0521 297.5 42.6042 297.5 44.8125C297.5 46.9167 296.865 48.4375 295.594 49.375C294.323 50.3125 292.823 50.7812 291.094 50.7812C289.26 50.7812 287.688 50.3125 286.375 49.375C285.083 48.4375 284.438 46.9167 284.438 44.8125Z" fill="#FFB800"/>
</svg>
